<?xml version="1.0" encoding="UTF-8"?>
<svg id="Lag_1" data-name="Lag 1" xmlns="http://www.w3.org/2000/svg" viewBox="0 0 140.54 115.92">
  <defs>
    <style>
      .cls-1 {
        fill: #fff;
      }
    </style>
  </defs>
  <path class="cls-1" d="m29.77,91.72c-4.72,1.26-9.35,2.85-13.84,4.78-3.93,1.69-8.15,3.5-11.37,6.4-1.3,1.17-3.06,3.01-3.11,4.87s1.72,2.58,3.25,2.93c4.8,1.13,9.81,1.35,14.72,1.24s10.05-.58,15.06-1.08,9.88-1.1,14.73-2.28c8.58-2.1,17.41-4.69,24.91-9.48,2.47-1.58,9.84-6.14,5.79-9.58-1.61-1.37-3.96-1.56-5.95-1.87-2.91-.45-5.84-.75-8.78-.93-.61-.04-1.62.21-1.9.83s.24.95.82.99c2.21.13,4.4.33,6.6.62,1.87.24,4.01.36,5.76,1.13,4.65,2.04-1.83,6.26-3.82,7.56-6.53,4.26-14.13,6.54-21.6,8.52-8.36,2.21-17.05,2.95-25.65,3.53-4.31.29-8.64.39-12.94,0-2.11-.19-4.26-.45-6.31-.99-.84-.22-1.8-.61-1.76-1.66.04-.95.88-1.97,1.48-2.65,2.72-3.11,6.94-4.82,10.64-6.44,4.45-1.95,9.04-3.54,13.73-4.79.48-.13,1.4-.57,1.23-1.21s-1.21-.56-1.67-.44h0Z"/>
  <path class="cls-1" d="m71.81,91.49l-9,1.59c-.52.09-1.51.32-1.66.94s.91.59,1.23.54l9-1.59c.52-.09,1.51-.32,1.66-.94s-.91-.59-1.23-.54h0Z"/>
  <path class="cls-1" d="m28.72,99.91c-5.61,1.74-11.51,2.55-17.27,3.62-.57.11-1.35.69-1.19,1.35.18.72,1.17.68,1.71.58,5.76-1.06,11.66-1.88,17.27-3.62.56-.17,1.37-.65,1.19-1.35s-1.18-.74-1.71-.58h0Z"/>
  <path class="cls-1" d="m70.59,47.77c2.79.85,4.67,3.12,6.27,5.44,1.83,2.66,3.53,5.31,5.79,7.65,2.39,2.47,5.09,4.62,7.81,6.71s5.84,4.65,5.26,8.4l2.79-.75c-1.62-1.3-2.32-3.61-4.58-3.97-1.58-.26-4.14.23-4.66,1.99l2.89-.62c.1-2.17-1.76-3.63-3.4-4.73-2.26-1.52-4.47-3.09-6.53-4.89s-3.93-3.68-5.68-5.73c-1.64-1.92-3.1-4.03-5.33-5.32-.74-.43-2.38-.01-2.79.75-.93,1.71-2.64,2.51-4.44,3.03-2.17.62-4.39,1.09-6.58,1.62-2.62.63-8.38,2.2-5.87,6.01,2.66,4.03,6.16,7.47,8.95,11.41,1.24,1.74,2.43,3.9,2.2,6.11s-2.12,4.23-3.44,6.03c-.8,1.1-1.61,2.2-2.41,3.3-.58.79-1.5,1.75-1.56,2.78-.08,1.22,1.07,1.58,1.78,2.35.81.88,1.1,2.06,1.02,3.23l2.63-1c-1.64-.73-3.26-1.52-4.83-2.39-1.21-.67-2.65-1.44-3.33-2.7-1.49-2.77,1.68-6.34,3.53-8.11.92-.88,1.94-1.75,2.49-2.93.6-1.31.26-2.69-.41-3.89-1.41-2.51-3.58-4.62-5.93-6.23-.47-.32-3.12.08-2.81.91,1.15,3.07,2.45,6.58,1.61,9.88s-3.87,5.18-6.38,7.13c-1.41,1.1-2.83,2.2-4.24,3.3-1.09.85-2.49,1.71-3.07,3.03-.55,1.24.18,1.93,1.18,2.54,1.35.83,2.23,2.04,2.63,3.58l2.37-1.05c-3.1-.6-11.31-2.34-9.16-7.11.93-2.06,3-3.82,4.59-5.36,1.68-1.63,3.48-3.07,5.28-4.55,1.44-1.18,2.75-2.6,2.62-4.59s-1.59-3.69-2.73-5.22c-2.72-3.62-4.72-8.23-2.41-12.57,1.12-2.11,2.98-3.77,4.85-5.2,2.13-1.62,4.37-3.13,6.92-4,.37-.13,1.12-.48.83-.95-.27-.44-1.58-.01-1.89.09-2.73.91-5.53,1.13-8.38.95-1.06-.07-2.11-.01-3.1.41-1.08.46-1.69,1.32-2.39,2.23-1.63,2.12-3.35,4.2-4.86,6.4-1.3,1.91-2.31,3.98-2.07,6.34l2.63-1c-.73-.22-.91-1.21-1.38-1.74-.6-.66-1.49-.64-2.3-.45-2.26.53-3.64,2.77-3.83,4.98l2.89-.62c-.79-1.28-1.07-2.79-.67-4.26.47-1.74,1.81-2.51,2.97-3.74,2.14-2.28,2.79-5.64,4.7-8.12,2.24-2.89,5.6-3.7,8.95-4.68,3.72-1.09,7.47-2.03,11.37-2.09.53,0,1.64-.21,1.93-.73s-.26-.62-.72-.62c-4.4.06-8.67,1.11-12.87,2.33-3.59,1.05-7.48,1.99-10.24,4.69-1.26,1.23-2.2,2.77-3,4.32-.86,1.67-1.46,3.61-2.77,5s-2.69,2.21-3.19,4.08c-.42,1.57-.2,3.2.64,4.58.39.64,2.82.16,2.89-.62s.24-1.53.59-2.23c.15-.3.59-.66.64-.95.37-.36.07-.4-.91-.09.1.07.18.16.24.26.34.75.9,1.64,1.72,1.89.57.17,2.72-.11,2.63-1-.25-2.39.94-4.49,2.3-6.36s2.91-3.82,4.37-5.72c.28-.37.64-1.07,1.05-1.32-.37.12-.32.17.13.14.31.03.62.05.93.06,1.04.05,2.08.04,3.11-.03,2.42-.18,4.75-.69,7.05-1.46l-1.06-.86c-4.33,1.48-8.7,4.46-11.74,7.89-1.41,1.59-2.55,3.5-2.84,5.63-.33,2.37.31,4.69,1.4,6.79s2.81,3.83,3.94,5.93c.55,1.02.97,2.19.7,3.36-.31,1.3-1.35,2.17-2.35,2.96-1.93,1.53-3.8,3.12-5.55,4.86-1.63,1.61-3.67,3.41-4.56,5.57-2.19,5.31,6.88,7.15,10.27,7.8.46.09,2.57-.28,2.37-1.05-.33-1.29-1.02-2.47-2.06-3.32-.47-.39-1.14-.6-1.56-1.03-.67-.7-.25-1.53.3-2.16,1.09-1.27,2.76-2.25,4.08-3.27,1.44-1.12,2.89-2.24,4.33-3.37,2.31-1.82,4.48-3.87,4.95-6.91.5-3.22-.63-6.43-1.75-9.39l-2.81.91c2.42,1.66,5.12,4.08,6.19,6.9,1.22,3.23-2.58,5.19-4.23,7.41-1.53,2.06-3.24,4.96-1.35,7.31.89,1.11,2.21,1.8,3.44,2.47,1.56.85,3.16,1.63,4.79,2.35.65.29,2.57-.16,2.63-1,.07-.93-.1-1.81-.57-2.63-.5-.87-1.34-1.24-1.93-1.99-.84-1.06.55-2.42,1.17-3.27.71-.97,1.42-1.94,2.13-2.91,1.23-1.69,2.91-3.47,3.57-5.49.61-1.86.16-3.81-.71-5.5-.97-1.91-2.38-3.55-3.73-5.2-1.59-1.95-3.15-3.91-4.69-5.9-1.04-1.34-3.66-3.83-1.62-5.4.68-.53,1.61-.68,2.43-.87,1.15-.28,2.29-.55,3.44-.83,3.85-.93,8.77-1.72,10.85-5.54l-2.79.75c2.1,1.22,3.51,3.16,5.04,4.99,1.73,2.06,3.62,3.99,5.64,5.77s4.05,3.32,6.24,4.77c1.74,1.15,3.94,2.51,3.83,4.87-.03.69,2.69.04,2.89-.62.1-.34,0-.24-.33-.25.24,0,.51.12.73.23.45.24.81.64,1.13,1.03.7.84,1.26,1.77,2.12,2.47.52.42,2.68.01,2.79-.75.56-3.59-1.96-6.28-4.58-8.34-2.87-2.26-5.78-4.45-8.35-7.05-2.39-2.41-4.16-5.18-6.09-7.95-1.7-2.46-3.68-4.73-6.63-5.63-.64-.19-1.47.02-2.04.33-.29.16-.97.7-.32.9h0Z"/>
  <path class="cls-1" d="m59.3,44.5c.51,1.18.95,2.53,1.84,3.49.98,1.06,2.48,1.26,3.84,1.09,1.55-.19,3.05-.86,4.13-2,.87-.92,1.41-2.12,1.69-3.34.19-.84-2.68-.39-2.88.44-.22.94-.56,1.88-1.17,2.65-.15.19-.31.37-.49.53-.06.05-.14.11-.21.16-.03.02-.33.21-.16.11-.03.02-.33.16-.17.09.11-.05-.2.06.07-.02-.12.04-.36.11-.1.03-.34.1.22,0-.14.02h-.12c.09,0,.09,0,0,0-.09,0-.23-.02-.3-.04-.16-.03-.39-.11-.57-.2-.39-.2-.73-.54-.98-.89-.63-.85-.98-1.95-1.4-2.91-.36-.84-3.2.09-2.9.78h0Z"/>
  <path class="cls-1" d="m63,37.61c-1.93.93-3.33,2.48-3.66,4.64l2.9-.78c.03-1.79.34-3.61,1.06-5.27.15-.35.32-.7.55-1,.1-.14.28-.25.36-.39.26-.41-.41.25-.51.06.02.04.96.15,1.07.19.37.12.71.3,1.04.5,1.33.81,2.39,2.03,3.82,2.69,1.72.79,3.55.57,5.26-.13l-2.27.24c-.09.97.35,2.23-.17,3.11-.06.11-.14.21-.23.3.89-.18,1.1-.26.62-.24-.18-.04-.38-.04-.57-.07-.57-.1-1.12-.26-1.66-.48-2.08-.85-3.81-2.35-5.49-3.81-.38-.33-1.46.06-1.86.2-.19.07-1.24.45-.88.76,2.23,1.94,4.66,3.99,7.7,4.43,1.55.23,3.61-.01,4.81-1.12,1.08-1.01.5-2.57.62-3.85.05-.49-2.11.18-2.27.24.81-.33.59-.13.18-.19-.22-.04-.44-.1-.66-.17-.41-.15-.79-.35-1.16-.58-.73-.46-1.38-1.04-2.06-1.56-1.38-1.07-2.89-1.71-4.66-1.5-1.88.22-3.61,1.06-4.41,2.84s-1.11,3.71-1.14,5.6c0,.4,2.79-.05,2.9-.78.21-1.41,1.08-2.93,2.4-3.57.27-.13.95-.49.37-.68-.55-.19-1.54.15-2.02.39h0Z"/>
  <path class="cls-1" d="m131.59,76.08c-1.25.22-2.43.74-3.27,1.72-.73.85-1.15,1.89-1.23,3s0,2.29.71,3.16c.62.76,1.57,1.26,2.51,1.51,1.97.54,4.32.11,5.97-1.09.86-.63,1.64-1.48,1.86-2.56.1-.51.1-1.04.1-1.56,0-.57,0-1.16-.11-1.72-.5-2.57-3.19-3.35-5.5-3.13-.56.05-1.52.39-1.63,1.04s.84.76,1.28.72c0,0,.38-.03.17-.02-.18.01.07,0,.11,0,.18,0,.36.01.53.04-.23-.03.18.04.25.06s.15.04.23.06c.22.06-.02-.03.17.06.59.27,1.06.65,1.31,1.31.28.74.29,1.54.27,2.32s-.08,1.55-.57,2.09c-.1.11-.21.21-.31.31-.18.16-.04.03,0,0-.07.05-.15.11-.22.16-.06.04-.13.07-.19.11-.18.12.31-.13-.01,0-.07.03-.13.06-.2.09l-.1.04c-.16.06-.14.05.07-.02-.09.08-.35.03-.42.11.06-.07.28-.04.07-.01-.07,0-.15.02-.22.03-.09,0-.18.01-.27.02-.2.02.24.01.04,0-.09,0-.18,0-.27-.01-.03,0-.33-.03-.16-.01.19.02-.16-.03-.16-.03-.07-.01-.14-.03-.21-.05-.14-.04-.28-.08-.42-.13.15.06-.22-.1-.28-.14-.16-.08-.32-.18-.47-.28-.06-.04-.22-.17-.33-.28-.13-.13-.25-.26-.34-.42-.21-.34-.26-.78-.3-1.17-.09-.85,0-1.81.4-2.57.21-.4.34-.55.63-.82.15-.14-.14.1.02-.02.04-.02.35-.21.19-.13s.07-.02.11-.04c.11-.04.07-.03-.1.03.17-.04.15-.04-.04,0,.57-.1,1.51-.36,1.63-1.04s-.84-.8-1.28-.72h0Z"/>
  <path class="cls-1" d="m131.72,68.18c-1.45.07-2.96.7-3.6,2.08-.38.82-.17,1.8.48,2.42,1,.95,2.61.88,3.79.34,1.06-.48,2.04-1.4,1.91-2.66-.05-.47-.32-.95-.65-1.27-.5-.49-1.13-.66-1.8-.72-.35-.03-.82.1-1.14.23-.25.11-.63.3-.78.55-.11.18-.18.41,0,.58.21.2.51.21.78.24-.24-.03-.3-.03-.17-.01.03,0,.07.01.1.02.19.04-.27-.1-.05-.01.12.05.23.11.33.18l-.19-.13c.22.16.4.35.55.58l-.1-.17c.15.26.24.55.25.86v-.2c0,.24-.05.46-.15.68l.1-.21c-.05.1-.1.19-.17.28-.03.04-.07.12-.11.14l.12-.13s-.05.05-.07.07c-.04.03-.08.06-.12.1.28-.25.2-.13.1-.07-.21.13.09-.05.15-.07-.06.01-.32.12,0,.01.44-.15-.26.04.19-.05.34-.07.05-.03,0,0,.05-.02.41-.02.16-.02-.2,0,.33.05.12,0-.05-.01-.1-.02-.15-.03.31.06.16.05.07.01-.11-.05-.21-.1-.31-.17l.19.13c-.23-.16-.41-.36-.56-.59l.1.17c-.16-.27-.24-.56-.25-.88v.2c0-.27.07-.53.18-.77l-.1.21c.06-.13.14-.25.23-.36.02-.03.04-.05.06-.08.08-.1-.18.17-.08.09.06-.05.11-.1.17-.15.12-.1-.14.1-.14.1.03-.01.06-.04.09-.05s.06-.03.09-.05c0,0-.36.16-.19.1.03-.01.06-.02.09-.04-.45.18-.34.12-.21.08.15-.04-.4.06-.24.05.02,0,.03,0,.05,0,.11-.01.03,0-.24.01.4-.02.77-.07,1.14-.23.25-.11.63-.3.78-.55.11-.18.18-.41,0-.58-.2-.18-.52-.25-.78-.24h0Z"/>
  <path class="cls-1" d="m102.01,90.99c7.85-.64,15.92-2.71,21.52-8.59.49-.51-.42-.78-.77-.79-.7-.02-1.44.27-1.92.77-4.78,5.02-11.76,6.55-18.42,7.09-.48.04-1.57.37-1.66.95-.09.64.85.6,1.24.56h0Z"/>
  <path class="cls-1" d="m58.14,21.01c2.23,2.2,2.2,6.37-.37,8.34s-6.3.37-8.13-1.99c-2.2-2.84-2.78-7.28-.27-10.1s6.54-4.38,10.27-4.52c.51-.02,1.92-.26,2.02-.97.29-2.02,1.61-4.31,3.75-4.81,2.27-.52,4.59,1.11,5.74,2.93.47.73,2.6-.05,2.79-.75.37-1.33,1.4-3.66,3.05-3.75s3.09,1.71,3,3.21c-.04.6.8.63,1.23.55,9.27-1.74,19.99-2.75,28.25,2.68,6.63,4.36,11.85,10.83,15.13,18.03s4.69,14.94,3.95,22.67c-.41,4.32-1.43,8.73-3.5,12.57-1.94,3.59-4.68,6.68-7.84,9.24-8.13,6.58-18.53,9.16-28.52,11.44-.39.09-1.42.49-1.27,1.06s1.27.36,1.63.28c9.53-2.17,19.32-4.65,27.52-10.21,3.56-2.42,6.8-5.33,9.32-8.84,2.66-3.7,4.25-7.96,5.07-12.43,2.97-16.19-3.85-33.81-17.04-43.68-4.36-3.26-9.12-5.1-14.56-5.52-5.88-.45-11.91.13-17.7,1.22l1.23.55c.17-2.92-2.77-4.63-5.43-4.33-3.15.35-5.57,2.66-6.4,5.66l2.79-.75c-3.82-6.01-14.07-3.56-15.08,3.37l2.02-.97c-6.8.25-17.35,4.42-15.83,12.88.61,3.39,3.03,6.44,6.4,7.38,3.1.86,6.86.09,9.21-2.16,2.58-2.47,2.85-6.83.25-9.39-.68-.67-3.41.4-2.7,1.1h0Z"/>
  <path class="cls-1" d="m80.36,84.69c7.18-2.09,14.89-2.82,21.78-5.83,3.41-1.49,6.31-3.69,8.97-6.26s5.66-5.51,7.8-8.76c3.92-5.96,5.05-13.33,4.87-20.34-.1-3.91-.46-7.67-2.16-11.25s-3.3-6.94-5.69-9.9c-4.96-6.14-12.68-8.87-19.91-11.32-1.21-.41-3.41,1.34-1.68,1.92,6.09,2.06,12.6,4.24,17.29,8.85,2.56,2.52,4.32,5.67,5.92,8.85.78,1.55,1.6,3.11,2.17,4.75.66,1.91.88,3.93,1.01,5.94.46,6.66-.11,13.72-3.18,19.75-1.64,3.22-4.08,5.79-6.56,8.36s-5.16,5.22-8.43,6.92-7.12,2.7-10.84,3.5c-4,.87-7.97,1.72-11.9,2.86-1.76.51-1.26,2.46.52,1.94h0Z"/>
  <path class="cls-1" d="m100.78,66.31c3.58-2.82,6.21-6.58,8.41-10.53s4.76-8.63,4.36-13.46c-.21-2.54-1.11-4.96-2.06-7.31-.83-2.07-1.65-4.2-2.96-6.02-1.2-1.67-2.82-2.68-4.44-3.89-.82-.61-1.6-1.29-2.11-2.19-.54-.95-.78-2.01-1.46-2.89-2.77-3.59-8.64-2.53-11.29.65l2.79-.75c-4.71-4.39-13.09-6.38-17.86-.88-2.09,2.4-2.64,6.17-.94,8.94,1.52,2.47,4.3,3.75,7.16,3.31,3.78-.58,5.95-3.17,7.8-6.29.26-.44-1.03-.27-1.15-.25-.5.09-1.41.28-1.7.77-.72,1.21-1.45,2.46-2.45,3.47-1.14,1.16-2.09,1.5-3.63.88-2.67-1.09-4.22-3.8-4.13-6.63s2.19-6.5,5.4-6.46,6.47,1.96,8.76,4.1c.56.52,2.4-.28,2.79-.75.75-.9,1.55-1.4,2.73-1.14.85.19,1.66.65,2.3,1.24,1.32,1.21,1.51,3.07,2.66,4.41s2.63,2.07,3.94,3.11c1.54,1.22,2.58,2.85,3.41,4.6,1.7,3.55,3.5,7.63,3.57,11.62.07,4.27-2.16,8.3-4.16,11.95-2.18,3.99-4.77,7.78-8.37,10.62-.52.41.47.45.67.44.65-.04,1.42-.27,1.94-.68h0Z"/>
  <path class="cls-1" d="m91.45,41.22c1.17,2.32-3.52,1.51-4.43.69-1.36-1.23-1.09-3.63.14-4.85,1.46-1.45,3.92-1.1,5.66-.44s3.32,1.9,4.52,3.36c5.89,7.13,2.82,16.85-2.57,23.25-1.15,1.36,1.63,1.59,2.38.7,5.78-6.86,9.19-17.1,3.08-24.89-2.58-3.28-6.77-5.44-11-4.79-2.05.32-4.12,1.3-5.24,3.12-.96,1.57-1.15,3.72-.06,5.28,1.38,1.97,4.34,2.2,6.51,1.97,1.86-.2,5.12-1.76,3.9-4.16-.58-1.14-3.42-.26-2.9.78h0Z"/>
</svg>